<svg height="512pt" viewBox="0 -21 512 512" width="512pt" xmlns="http://www.w3.org/2000/svg"><path d="m74.667969 149.332031c-17.644531 0-32 14.359375-32 32v106.667969c0 5.886719 4.777343 10.667969 10.664062 10.667969 5.890625 0 10.667969-4.78125 10.667969-10.667969h21.332031c0 5.886719 4.78125 10.667969 10.667969 10.667969s10.667969-4.78125 10.667969-10.667969v-106.667969c0-17.640625-14.359375-32-32-32zm0 0" fill="#455a64"/><path d="m352 320h-138.667969v-32c0-5.886719-4.777343-10.667969-10.664062-10.667969h-128c-29.398438 0-53.335938 23.9375-53.335938 53.335938v32h-10.664062c-5.890625 0-10.667969 4.777343-10.667969 10.664062v42.667969c0 5.886719 4.777344 10.667969 10.667969 10.667969h341.332031c5.886719 0 10.667969-4.78125 10.667969-10.667969v-85.332031c0-5.890625-4.78125-10.667969-10.667969-10.667969zm0 0" fill="#ffc107"/><path d="m117.332031 426.667969c0 17.671875-14.324219 32-32 32-17.671875 0-32-14.328125-32-32 0-17.675781 14.328125-32 32-32 17.675781 0 32 14.324219 32 32zm0 0" fill="#90a4ae"/><path d="m330.667969 416c0 23.5625-19.105469 42.667969-42.667969 42.667969s-42.667969-19.105469-42.667969-42.667969 19.105469-42.667969 42.667969-42.667969 42.667969 19.105469 42.667969 42.667969zm0 0" fill="#90a4ae"/><path d="m138.667969 298.667969c-5.890625 0-10.667969-4.78125-10.667969-10.667969v-170.667969c0-17.640625 14.355469-32 32-32h128c5.886719 0 10.667969 4.78125 10.667969 10.667969s-4.78125 10.667969-10.667969 10.667969h-128c-5.867188 0-10.667969 4.796875-10.667969 10.664062v170.667969c0 5.886719-4.777343 10.667969-10.664062 10.667969zm0 0"/><path d="m319.980469 341.332031c-5.035157 0-9.539063-3.605469-10.476563-8.746093l-42.667968-234.664063c-1.042969-5.804687 2.796874-11.351563 8.578124-12.417969 5.714844-.9375 11.347657 2.773438 12.414063 8.574219l42.667969 234.667969c1.046875 5.804687-2.792969 11.351562-8.574219 12.417968-.640625.105469-1.304687.167969-1.941406.167969zm0 0"/><path d="m288 341.332031c-4.457031 0-8.617188-2.835937-10.132812-7.292969l-32-96c-1.855469-5.589843 1.171874-11.628906 6.742187-13.503906 5.589844-1.835937 11.625 1.171875 13.503906 6.738282l32 96c1.855469 5.589843-1.175781 11.628906-6.742187 13.503906-1.132813.386718-2.242188.554687-3.371094.554687zm0 0"/><path d="m234.667969 245.332031c-4.460938 0-8.621094-2.835937-10.132813-7.292969-1.859375-5.589843 1.171875-11.628906 6.738282-13.503906l32-10.667968c5.613281-1.878907 11.628906 1.171874 13.503906 6.742187 1.855468 5.589844-1.171875 11.625-6.738282 13.503906l-32 10.664063c-1.132812.386718-2.242187.554687-3.371093.554687zm0 0"/><path d="m224 277.332031h-42.667969c-5.203125 0-9.664062-3.773437-10.515625-8.917969l-10.667968-64c-.980469-5.800781 2.964843-11.304687 8.769531-12.265624 5.738281-1.023438 11.285156 2.964843 12.265625 8.769531l9.195312 55.082031h33.621094c5.886719 0 10.667969 4.777344 10.667969 10.667969 0 5.886719-4.78125 10.664062-10.667969 10.664062zm0 0"/><path d="m352 352c-5.886719 0-10.667969-4.777344-10.667969-10.667969v-330.664062c0-5.890625 4.78125-10.667969 10.667969-10.667969s10.667969 4.777344 10.667969 10.667969v330.664062c0 5.890625-4.78125 10.667969-10.667969 10.667969zm0 0"/><path d="m85.332031 469.332031c-23.53125 0-42.664062-19.132812-42.664062-42.664062s19.132812-42.667969 42.664062-42.667969 42.667969 19.136719 42.667969 42.667969-19.136719 42.664062-42.667969 42.664062zm0-64c-11.773437 0-21.332031 9.558594-21.332031 21.335938 0 11.773437 9.558594 21.332031 21.332031 21.332031 11.777344 0 21.335938-9.558594 21.335938-21.332031 0-11.777344-9.558594-21.335938-21.335938-21.335938zm0 0"/><path d="m288 469.332031c-29.417969 0-53.332031-23.914062-53.332031-53.332031s23.914062-53.332031 53.332031-53.332031 53.332031 23.914062 53.332031 53.332031-23.914062 53.332031-53.332031 53.332031zm0-85.332031c-17.644531 0-32 14.355469-32 32s14.355469 32 32 32 32-14.355469 32-32-14.355469-32-32-32zm0 0"/><path d="m245.332031 426.667969h-128c-5.886719 0-10.664062-4.78125-10.664062-10.667969s4.777343-10.667969 10.664062-10.667969h128c5.890625 0 10.667969 4.78125 10.667969 10.667969s-4.777344 10.667969-10.667969 10.667969zm0 0"/><path d="m352 426.667969h-21.332031c-5.890625 0-10.667969-4.78125-10.667969-10.667969s4.777344-10.667969 10.667969-10.667969h10.664062v-64h-138.664062c-5.890625 0-10.667969-4.777343-10.667969-10.664062v-32h-117.332031c-17.644531 0-32 14.355469-32 32v42.664062c0 5.890625-4.78125 10.667969-10.667969 10.667969h-10.667969v21.332031h32c5.890625 0 10.667969 4.78125 10.667969 10.667969s-4.777344 10.667969-10.667969 10.667969h-42.664062c-5.890625 0-10.667969-4.78125-10.667969-10.667969v-42.667969c0-5.886719 4.777344-10.664062 10.667969-10.664062h10.664062v-32c0-29.421875 23.914063-53.335938 53.335938-53.335938h128c5.886719 0 10.664062 4.78125 10.664062 10.667969v32h138.667969c5.886719 0 10.667969 4.777344 10.667969 10.667969v85.332031c0 5.886719-4.78125 10.667969-10.667969 10.667969zm0 0"/><path d="m501.332031 362.667969h-149.332031c-5.886719 0-10.667969-4.78125-10.667969-10.667969s4.78125-10.667969 10.667969-10.667969h149.332031c5.890625 0 10.667969 4.78125 10.667969 10.667969s-4.777344 10.667969-10.667969 10.667969zm0 0"/><path d="m74.667969 170.667969c-5.890625 0-10.667969-4.78125-10.667969-10.667969v-21.332031c0-5.867188-4.800781-10.667969-10.667969-10.667969-5.886719 0-10.664062-4.777344-10.664062-10.667969 0-5.886719 4.777343-10.664062 10.664062-10.664062 17.644531 0 32 14.355469 32 32v21.332031c0 5.886719-4.777343 10.667969-10.664062 10.667969zm0 0"/><path d="m96 298.667969c-5.886719 0-10.667969-4.78125-10.667969-10.667969v-106.667969c0-5.867187-4.796875-10.664062-10.664062-10.664062-5.867188 0-10.667969 4.796875-10.667969 10.664062v106.667969c0 5.886719-4.777344 10.667969-10.667969 10.667969-5.886719 0-10.664062-4.78125-10.664062-10.667969v-106.667969c0-17.640625 14.355469-32 32-32 17.640625 0 32 14.359375 32 32v106.667969c0 5.886719-4.78125 10.667969-10.667969 10.667969zm0 0"/></svg>